<?xml version="1.0" encoding="UTF-8" standalone="no"?>
<svg
   version="1.1"
   viewBox="-5 -10 100 100"
   id="svg2"
   sodipodi:docname="Clubs.svg"
   width="100"
   height="100"
   inkscape:version="1.3 (0e150ed6c4, 2023-07-21)"
   inkscape:export-filename="10 of Clubs.png"
   inkscape:export-xdpi="96"
   inkscape:export-ydpi="96"
   xmlns:inkscape="http://www.inkscape.org/namespaces/inkscape"
   xmlns:sodipodi="http://sodipodi.sourceforge.net/DTD/sodipodi-0.dtd"
   xmlns="http://www.w3.org/2000/svg"
   xmlns:svg="http://www.w3.org/2000/svg">
  <defs
     id="defs2" />
  <sodipodi:namedview
     id="namedview2"
     pagecolor="#505050"
     bordercolor="#eeeeee"
     borderopacity="1"
     inkscape:showpageshadow="0"
     inkscape:pageopacity="0"
     inkscape:pagecheckerboard="0"
     inkscape:deskcolor="#505050"
     inkscape:zoom="5.2608745"
     inkscape:cx="25.661133"
     inkscape:cy="56.739616"
     inkscape:window-width="1858"
     inkscape:window-height="1057"
     inkscape:window-x="-8"
     inkscape:window-y="-8"
     inkscape:window-maximized="1"
     inkscape:current-layer="svg2" />
  <path
     d="m 84.954416,49.116204 c -0.65625,9.4297 -8.3477,17.035 -17.785,17.594 -8.2266,0.48828 -15.398,-4.2695 -18.5,-11.238 0.57031,7.5234 4.2422,14.434 10.793,20.77 0.98828,0.95312 0.33203,2.6211 -1.043,2.6211 h -26.836 c -1.375,0 -2.0312,-1.668 -1.043,-2.6211 6.5508,-6.3359 10.223,-13.246 10.793,-20.77 -3.1016,6.9688 -10.273,11.723 -18.5,11.238 -9.4375,-0.55859 -17.1290009,-8.1602 -17.7850009,-17.594 -0.7734397,-11.102 8.0039009,-20.348 18.9380009,-20.348 1.5078,0 2.9766,0.17969 4.3828,0.51562 -1.5,-2.7148 -2.3555,-5.8359 -2.3555,-9.1602 0,-10.66 8.7812,-19.26600017 19.508,-18.9800002 9.8672,0.26562 18.008,8.2500002 18.445,18.1130002 0.16406,3.6445 -0.70703,7.0742 -2.3359,10.027 1.4062,-0.33203 2.875,-0.51562 4.3828,-0.51562 10.938,0 19.711,9.2461 18.938,20.348 z"
     id="path1"
     style="fill:#00ffff" />
  <text
     xml:space="preserve"
     style="font-size:42.6667px;line-height:1;font-family:Arial;-inkscape-font-specification:Arial;text-align:center;letter-spacing:1px;text-anchor:middle;fill:#000000;stroke:none;stroke-width:10"
     x="44.523438"
     y="50.666691"
     id="text2"><tspan
       sodipodi:role="line"
       id="tspan2"
       x="45.023438"
       y="50.666691"
       style="font-weight:bold;font-size:42.6667px;text-align:center;text-anchor:middle">10</tspan></text>
</svg>
