<?xml version="1.0" encoding="UTF-8" standalone="no"?>
<svg
   viewBox="0 0 99.999998 100"
   x="0px"
   y="0px"
   version="1.1"
   id="svg3"
   sodipodi:docname="Spades.svg"
   width="100"
   height="100"
   inkscape:export-filename="10_of_Spades.png"
   inkscape:export-xdpi="96"
   inkscape:export-ydpi="96"
   inkscape:version="1.3 (0e150ed6c4, 2023-07-21)"
   xmlns:inkscape="http://www.inkscape.org/namespaces/inkscape"
   xmlns:sodipodi="http://sodipodi.sourceforge.net/DTD/sodipodi-0.dtd"
   xmlns="http://www.w3.org/2000/svg"
   xmlns:svg="http://www.w3.org/2000/svg"
   xmlns:rdf="http://www.w3.org/1999/02/22-rdf-syntax-ns#"
   xmlns:cc="http://creativecommons.org/ns#"
   xmlns:dc="http://purl.org/dc/elements/1.1/">
  <defs
     id="defs3" />
  <sodipodi:namedview
     id="namedview3"
     pagecolor="#505050"
     bordercolor="#eeeeee"
     borderopacity="1"
     inkscape:showpageshadow="0"
     inkscape:pageopacity="0"
     inkscape:pagecheckerboard="0"
     inkscape:deskcolor="#505050"
     inkscape:zoom="7.2639757"
     inkscape:cx="41.575029"
     inkscape:cy="58.439072"
     inkscape:window-width="1858"
     inkscape:window-height="1057"
     inkscape:window-x="-8"
     inkscape:window-y="-8"
     inkscape:window-maximized="1"
     inkscape:current-layer="svg3" />
  <title
     id="title1">GameAsset 60</title>
  <path
     d="m 55.08695,69.0505 c 11.88,12.0021 34.4751,5.2338 34.4751,-13.3617 0,-21.3345 -28.1193,-25.08 -38.8146,-47.2692035 a 0.8877,0.8877 0 0 0 -1.5906,-0.0462 C 36.97655,30.4438 10.43795,34.3444 10.43795,55.6888 c 0,18.6912 23.001,25.6146 34.7325,13.2627 a 0.8976,0.8976 0 0 1 1.4949,0.9075 c -2.838,9.042 -9.6822,16.302 -19.0476,16.764 a 0.8877,0.8877 0 0 0 -0.8646,0.8778 v 3.696 a 0.9009,0.9009 0 0 0 0.9009,0.9009 h 45.6258 a 0.8976,0.8976 0 0 0 0.8976,-0.9009 v -3.696 a 0.8877,0.8877 0 0 0 -0.8679,-0.8811 c -9.7185,-0.4125 -16.6716,-7.7385 -19.7043,-16.6782 a 0.8877,0.8877 0 0 1 1.4817,-0.891 z"
     id="path1"
     style="stroke-width:0.999999;fill:#00ffff" />
  <metadata
     id="metadata3">
    <rdf:RDF>
      <cc:Work
         rdf:about="">
        <dc:title>GameAsset 60</dc:title>
      </cc:Work>
    </rdf:RDF>
  </metadata>
  <text
     xml:space="preserve"
     style="font-size:42.6667px;line-height:1;font-family:Arial;-inkscape-font-specification:Arial;text-align:center;letter-spacing:1px;text-anchor:middle;fill:#000000;stroke-width:10"
     x="49.364582"
     y="60.666691"
     id="text3"><tspan
       sodipodi:role="line"
       id="tspan3"
       x="49.864582"
       y="60.666691"
       style="font-weight:bold">10</tspan></text>
</svg>
