<?xml version="1.0" encoding="UTF-8" standalone="no"?>
<svg
   version="1.1"
   viewBox="-5 -10 100 100"
   id="svg2"
   sodipodi:docname="Hearts.svg"
   width="100"
   height="100"
   inkscape:export-filename="10_of_Hearts.png"
   inkscape:export-xdpi="96"
   inkscape:export-ydpi="96"
   inkscape:version="1.3 (0e150ed6c4, 2023-07-21)"
   xmlns:inkscape="http://www.inkscape.org/namespaces/inkscape"
   xmlns:sodipodi="http://sodipodi.sourceforge.net/DTD/sodipodi-0.dtd"
   xmlns="http://www.w3.org/2000/svg"
   xmlns:svg="http://www.w3.org/2000/svg">
  <defs
     id="defs2" />
  <sodipodi:namedview
     id="namedview2"
     pagecolor="#505050"
     bordercolor="#eeeeee"
     borderopacity="1"
     inkscape:showpageshadow="0"
     inkscape:pageopacity="0"
     inkscape:pagecheckerboard="0"
     inkscape:deskcolor="#505050"
     inkscape:zoom="6.0666667"
     inkscape:cx="52.582417"
     inkscape:cy="52.82967"
     inkscape:window-width="1858"
     inkscape:window-height="1057"
     inkscape:window-x="-8"
     inkscape:window-y="-8"
     inkscape:window-maximized="1"
     inkscape:current-layer="svg2" />
  <path
     d="m 25.367585,1.4228862 c -6.168,0 -12.336,2.3555 -17.047,7.0742 -9.4258,9.4335998 -9.4258,24.6879998 0,34.1169998 l 3.7305,3.7305 30.613,30.629 c 0.42578,0.42578 0.86328,0.83594 1.3125,1.2227 v 0.0039 c 0.58594,0.50781 1.4609,0.50781 2.0469,0 0.44531,-0.38672 0.88672,-0.79688 1.3125,-1.2227 l 30.613,-30.633 c 0.0039,-0.0078 0.01172,-0.01172 0.01563,-0.01953 l 3.7148,-3.7109 c 9.4258,-9.4336 9.4258,-24.688 0,-34.1169997 -9.4258,-9.43360005 -24.672,-9.43360005 -34.102,0 l -2.5781,2.5780997 -2.5781,-2.5819998 c -4.7148,-4.7148 -10.883,-7.0742 -17.051,-7.0742 z"
     id="path1"
     style="fill:#00ffff" />
  <text
     xml:space="preserve"
     style="font-size:42.6667px;line-height:1;font-family:Arial;-inkscape-font-specification:Arial;text-align:center;letter-spacing:1px;text-anchor:middle;fill:#000000;stroke-width:10"
     x="44.364582"
     y="50.666691"
     id="text2"><tspan
       sodipodi:role="line"
       id="tspan2"
       x="44.864582"
       y="50.666691"
       style="font-weight:bold">10</tspan></text>
</svg>
